<mxfile host="app.diagrams.net" modified="2021-10-20T03:24:12.165Z" agent="5.0 (Windows NT 10.0; Win64; x64) AppleWebKit/537.36 (KHTML, like Gecko) Chrome/94.0.4606.71 Safari/537.36" etag="hUmC_nI8ai80VV04Gxti" version="15.5.5" type="github">
  <diagram id="hmaOy74QplFOzbtHyPvW" name="Page-1">
    <mxGraphModel dx="1038" dy="547" grid="1" gridSize="10" guides="1" tooltips="1" connect="1" arrows="1" fold="1" page="1" pageScale="1" pageWidth="827" pageHeight="1169" math="0" shadow="0">
      <root>
        <mxCell id="0" />
        <mxCell id="1" parent="0" />
        <mxCell id="y2JUJppHnZh-zkIixHgf-2" value="&lt;font style=&quot;font-size: 18px&quot;&gt;&lt;b&gt;生成的数据集&lt;/b&gt;&lt;/font&gt;" style="shape=cylinder3;whiteSpace=wrap;html=1;boundedLbl=1;backgroundOutline=1;size=15;fillColor=#1ba1e2;fontColor=#ffffff;strokeColor=#006EAF;" vertex="1" parent="1">
          <mxGeometry x="580" y="452.5" width="130" height="70" as="geometry" />
        </mxCell>
        <mxCell id="y2JUJppHnZh-zkIixHgf-3" value="" style="shape=flexArrow;endArrow=classic;html=1;rounded=0;fontSize=14;endWidth=6;endSize=7;fillColor=#f5f5f5;strokeColor=#666666;" edge="1" parent="1">
          <mxGeometry width="50" height="50" relative="1" as="geometry">
            <mxPoint x="200" y="479.5" as="sourcePoint" />
            <mxPoint x="270" y="479.5" as="targetPoint" />
          </mxGeometry>
        </mxCell>
        <mxCell id="y2JUJppHnZh-zkIixHgf-4" value="" style="shape=flexArrow;endArrow=classic;html=1;rounded=0;fontSize=14;endWidth=6;endSize=7;fillColor=#f5f5f5;strokeColor=#666666;" edge="1" parent="1">
          <mxGeometry width="50" height="50" relative="1" as="geometry">
            <mxPoint x="379" y="479.5" as="sourcePoint" />
            <mxPoint x="449" y="479.5" as="targetPoint" />
          </mxGeometry>
        </mxCell>
        <mxCell id="y2JUJppHnZh-zkIixHgf-5" value="" style="shape=flexArrow;endArrow=classic;html=1;rounded=0;fontSize=14;endWidth=6;endSize=7;fillColor=#f5f5f5;strokeColor=#666666;" edge="1" parent="1">
          <mxGeometry width="50" height="50" relative="1" as="geometry">
            <mxPoint x="500" y="479.5" as="sourcePoint" />
            <mxPoint x="570" y="479.5" as="targetPoint" />
          </mxGeometry>
        </mxCell>
        <mxCell id="y2JUJppHnZh-zkIixHgf-6" value="" style="shape=flexArrow;endArrow=classic;html=1;rounded=0;fontSize=14;endWidth=6;endSize=7;fillColor=#f5f5f5;strokeColor=#666666;" edge="1" parent="1">
          <mxGeometry width="50" height="50" relative="1" as="geometry">
            <mxPoint x="389" y="396" as="sourcePoint" />
            <mxPoint x="389" y="348" as="targetPoint" />
          </mxGeometry>
        </mxCell>
        <mxCell id="y2JUJppHnZh-zkIixHgf-7" value="" style="shape=flexArrow;endArrow=classic;html=1;rounded=0;fontSize=14;endWidth=6;endSize=7;fillColor=#f5f5f5;strokeColor=#666666;" edge="1" parent="1">
          <mxGeometry width="50" height="50" relative="1" as="geometry">
            <mxPoint x="390" y="282" as="sourcePoint" />
            <mxPoint x="390" y="222" as="targetPoint" />
          </mxGeometry>
        </mxCell>
        <mxCell id="y2JUJppHnZh-zkIixHgf-9" value="" style="rounded=0;whiteSpace=wrap;html=1;fontSize=14;fillColor=#cdeb8b;strokeColor=#36393d;" vertex="1" parent="1">
          <mxGeometry x="280" y="437.5" width="10" height="85" as="geometry" />
        </mxCell>
        <mxCell id="y2JUJppHnZh-zkIixHgf-11" value="" style="rounded=0;whiteSpace=wrap;html=1;fontSize=14;fillColor=#cdeb8b;strokeColor=#36393d;" vertex="1" parent="1">
          <mxGeometry x="330" y="437.5" width="10" height="85" as="geometry" />
        </mxCell>
        <mxCell id="y2JUJppHnZh-zkIixHgf-12" value="" style="rounded=0;whiteSpace=wrap;html=1;fontSize=14;fillColor=#cdeb8b;strokeColor=#36393d;" vertex="1" parent="1">
          <mxGeometry x="350" y="437.5" width="10" height="85" as="geometry" />
        </mxCell>
        <mxCell id="y2JUJppHnZh-zkIixHgf-13" value="" style="rounded=0;whiteSpace=wrap;html=1;fontSize=14;fillColor=#ffcc99;strokeColor=#36393d;" vertex="1" parent="1">
          <mxGeometry x="470" y="437.5" width="20" height="85" as="geometry" />
        </mxCell>
        <mxCell id="y2JUJppHnZh-zkIixHgf-15" value="&lt;b&gt;......&lt;/b&gt;" style="text;html=1;strokeColor=none;fillColor=none;align=center;verticalAlign=middle;whiteSpace=wrap;rounded=0;fontSize=14;" vertex="1" parent="1">
          <mxGeometry x="280" y="465" width="60" height="30" as="geometry" />
        </mxCell>
        <mxCell id="y2JUJppHnZh-zkIixHgf-16" value="&lt;b&gt;&lt;font style=&quot;font-size: 18px&quot;&gt;数据增强方法&lt;/font&gt;&lt;/b&gt;" style="text;html=1;strokeColor=none;fillColor=none;align=center;verticalAlign=middle;whiteSpace=wrap;rounded=0;fontSize=14;" vertex="1" parent="1">
          <mxGeometry x="270" y="540" width="116" height="30" as="geometry" />
        </mxCell>
        <mxCell id="y2JUJppHnZh-zkIixHgf-17" value="&lt;b&gt;&lt;font style=&quot;font-size: 18px&quot;&gt;标注优化&lt;/font&gt;&lt;/b&gt;" style="text;html=1;strokeColor=none;fillColor=none;align=center;verticalAlign=middle;whiteSpace=wrap;rounded=0;fontSize=14;" vertex="1" parent="1">
          <mxGeometry x="435" y="540" width="90" height="30" as="geometry" />
        </mxCell>
        <mxCell id="y2JUJppHnZh-zkIixHgf-19" value="" style="shape=flexArrow;endArrow=classic;html=1;rounded=0;fontSize=14;endWidth=6;endSize=7;fillColor=#f5f5f5;strokeColor=#666666;" edge="1" parent="1">
          <mxGeometry width="50" height="50" relative="1" as="geometry">
            <mxPoint x="126.5" y="410" as="sourcePoint" />
            <mxPoint x="126.5" y="450" as="targetPoint" />
          </mxGeometry>
        </mxCell>
        <mxCell id="y2JUJppHnZh-zkIixHgf-20" value="" style="shape=flexArrow;endArrow=classic;html=1;rounded=0;fontSize=14;endWidth=6;endSize=7;fillColor=#f5f5f5;strokeColor=#666666;" edge="1" parent="1">
          <mxGeometry width="50" height="50" relative="1" as="geometry">
            <mxPoint x="642" y="410" as="sourcePoint" />
            <mxPoint x="642" y="450" as="targetPoint" />
          </mxGeometry>
        </mxCell>
        <mxCell id="y2JUJppHnZh-zkIixHgf-21" value="" style="rounded=0;whiteSpace=wrap;html=1;fontSize=14;fillColor=#f5f5f5;strokeColor=#666666;fontColor=#333333;" vertex="1" parent="1">
          <mxGeometry x="121" y="402" width="526" height="10" as="geometry" />
        </mxCell>
        <mxCell id="y2JUJppHnZh-zkIixHgf-23" value="&lt;b&gt;&lt;font style=&quot;font-size: 18px&quot;&gt;数据混合优化层&lt;/font&gt;&lt;/b&gt;" style="rounded=0;whiteSpace=wrap;html=1;fontSize=14;fillColor=#fa6800;fontColor=#000000;strokeColor=#C73500;" vertex="1" parent="1">
          <mxGeometry x="129" y="290" width="510" height="54" as="geometry" />
        </mxCell>
        <mxCell id="y2JUJppHnZh-zkIixHgf-25" value="&lt;font style=&quot;font-size: 18px&quot;&gt;&lt;b&gt;原数据集&lt;/b&gt;&lt;/font&gt;" style="shape=cylinder3;whiteSpace=wrap;html=1;boundedLbl=1;backgroundOutline=1;size=15;fillColor=#1ba1e2;fontColor=#ffffff;strokeColor=#006EAF;" vertex="1" parent="1">
          <mxGeometry x="60" y="452.5" width="130" height="70" as="geometry" />
        </mxCell>
        <mxCell id="y2JUJppHnZh-zkIixHgf-27" value="&lt;b&gt;事件检测任务模型&lt;/b&gt;" style="rounded=1;whiteSpace=wrap;html=1;fontSize=18;strokeColor=#2D7600;fillColor=#60a917;fontColor=#ffffff;" vertex="1" parent="1">
          <mxGeometry x="130" y="150" width="509" height="60" as="geometry" />
        </mxCell>
      </root>
    </mxGraphModel>
  </diagram>
</mxfile>
